<?xml version="1.0" encoding="iso-8859-1"?>
<!-- Generator: Adobe Illustrator 19.0.0, SVG Export Plug-In . SVG Version: 6.00 Build 0)  -->
<svg version="1.1" id="Layer_1" xmlns="http://www.w3.org/2000/svg" xmlns:xlink="http://www.w3.org/1999/xlink" x="0px" y="0px"
	 viewBox="0 0 512 512" style="enable-background:new 0 0 512 512;" xml:space="preserve">
<g>
	<g>
		<path d="M494.222,443.794h-33.753V229.309c0-5.856-2.884-11.336-7.71-14.652l-106.184-72.958V88.996
			c0-9.818-7.96-17.778-17.778-17.778h-55.02V50.428c0-9.818-7.96-17.778-17.778-17.778s-17.778,7.96-17.778,17.778v20.789h-55.02
			c-9.818,0-17.778,7.96-17.778,17.778v52.703L59.241,214.656c-4.826,3.316-7.71,8.796-7.71,14.652v214.485H17.778
			C7.96,443.794,0,451.754,0,461.572s7.96,17.778,17.778,17.778h476.444c9.818,0,17.778-7.96,17.778-17.778
			S504.04,443.794,494.222,443.794z M291.314,437.868h-70.628V321.922c0-19.473,15.841-35.314,35.314-35.314
			s35.314,15.841,35.314,35.314V437.868z M349.81,437.868h-22.94V321.922c0-39.078-31.791-70.869-70.869-70.869
			c-39.078,0-70.869,31.791-70.869,70.869v115.945h-22.94v-121.88c0-51.727,42.084-93.81,93.81-93.81s93.81,42.084,93.81,93.81
			V437.868z M424.914,437.868h-39.548v-121.88c0-71.333-58.033-129.365-129.365-129.365s-129.365,58.033-129.365,129.365v121.881
			H87.086V238.663l106.183-72.958c4.826-3.316,7.71-8.796,7.71-14.652v-44.28H311.02v44.28c0,5.856,2.884,11.336,7.71,14.652
			l106.184,72.958V437.868z"/>
	</g>
</g>
<g>
</g>
<g>
</g>
<g>
</g>
<g>
</g>
<g>
</g>
<g>
</g>
<g>
</g>
<g>
</g>
<g>
</g>
<g>
</g>
<g>
</g>
<g>
</g>
<g>
</g>
<g>
</g>
<g>
</g>
</svg>
