<?xml version="1.0" encoding="iso-8859-1"?>
<!-- Generator: Adobe Illustrator 19.0.0, SVG Export Plug-In . SVG Version: 6.00 Build 0)  -->
<svg version="1.1" id="Layer_1" xmlns="http://www.w3.org/2000/svg" xmlns:xlink="http://www.w3.org/1999/xlink" x="0px" y="0px"
	 viewBox="0 0 511.992 511.992" style="enable-background:new 0 0 511.992 511.992;" xml:space="preserve">
<g>
	<g>
		<path d="M501.325,170.583h-352v-21.333h11.093c5.888,0,10.667-4.779,10.667-10.667c0-3.627-1.813-6.848-4.587-8.768L93.368,46.231
			c-4.053-4.651-12.011-4.651-16.064,0L2.637,131.564c-2.752,3.136-3.413,7.616-1.685,11.435c1.728,3.819,5.525,6.251,9.707,6.251
			h10.667v309.333c0,5.888,4.779,10.667,10.667,10.667s10.667-4.779,10.667-10.667v-10.667h85.333v10.667
			c0,5.888,4.779,10.667,10.667,10.667s10.667-4.779,10.667-10.667V191.916h64v108.629c-12.395,4.416-21.333,16.149-21.333,30.037
			c0,17.643,14.357,32,32,32s32-14.357,32-32c0-13.888-8.939-25.621-21.333-30.037V191.916h85.333v87.296
			c-12.395,4.416-21.333,16.149-21.333,30.037c0,17.643,14.357,32,32,32c17.643,0,32-14.357,32-32
			c0-13.888-8.939-25.621-21.333-30.037v-87.296h64v266.667c0,5.888,4.779,10.667,10.667,10.667c5.888,0,10.667-4.779,10.667-10.667
			V191.916h42.667v23.573c-6.4,2.667-10.667,7.531-10.667,13.76c0,6.229,4.267,11.093,10.667,13.76v31.147
			c-6.4,2.667-10.667,7.531-10.667,13.76s4.267,11.093,10.667,13.76v31.147c-6.4,2.667-10.667,7.531-10.667,13.76
			c0,6.229,4.267,11.093,10.667,13.76v31.147c-6.4,2.667-10.667,7.531-10.667,13.76c0,6.229,4.267,11.093,10.667,13.76v18.24
			c0,5.888,4.779,10.667,10.667,10.667c5.888,0,10.667-4.779,10.667-10.667v-18.24c6.4-2.667,10.667-7.531,10.667-13.76
			c0-6.229-4.267-11.093-10.667-13.76v-31.147c6.4-2.667,10.667-7.531,10.667-13.76c0-6.229-4.267-11.093-10.667-13.76v-31.147
			c6.4-2.667,10.667-7.531,10.667-13.76c0-6.229-4.267-11.093-10.667-13.76v-31.147c6.4-2.667,10.667-7.531,10.667-13.76
			s-4.267-11.093-10.667-13.76v-23.573h10.667c5.888,0,10.667-4.779,10.667-10.667S507.213,170.583,501.325,170.583z
			 M127.992,426.583H42.659v-42.667h85.333V426.583z M127.992,362.583H42.659v-42.667h85.333V362.583z M127.992,298.583H42.659
			v-42.667h85.333V298.583z M127.992,234.583H42.659v-85.333h85.333V234.583z M223.992,341.249c-5.888,0-10.667-4.779-10.667-10.667
			s4.779-10.667,10.667-10.667s10.667,4.779,10.667,10.667S229.88,341.249,223.992,341.249z M330.659,319.916
			c-5.888,0-10.667-4.779-10.667-10.667s4.779-10.667,10.667-10.667s10.667,4.779,10.667,10.667S336.547,319.916,330.659,319.916z"
			/>
	</g>
</g>
<g>
</g>
<g>
</g>
<g>
</g>
<g>
</g>
<g>
</g>
<g>
</g>
<g>
</g>
<g>
</g>
<g>
</g>
<g>
</g>
<g>
</g>
<g>
</g>
<g>
</g>
<g>
</g>
<g>
</g>
</svg>
