<?xml version="1.0" encoding="iso-8859-1"?>
<!-- Generator: Adobe Illustrator 18.0.0, SVG Export Plug-In . SVG Version: 6.00 Build 0)  -->
<!DOCTYPE svg PUBLIC "-//W3C//DTD SVG 1.1//EN" "http://www.w3.org/Graphics/SVG/1.1/DTD/svg11.dtd">
<svg version="1.1" id="Capa_1" xmlns="http://www.w3.org/2000/svg" xmlns:xlink="http://www.w3.org/1999/xlink" x="0px" y="0px"
	 viewBox="0 0 297 297" style="enable-background:new 0 0 297 297;" xml:space="preserve">
<g>
	<path d="M255.861,127.429H41.139c-7.204,0-13.044,5.84-13.044,13.044v143.483c0,7.204,5.84,13.044,13.044,13.044H148.5
		c7.204,0,13.044-5.84,13.044-13.044v-41.139h41.557c17.858,0,34.5-6.976,46.859-19.641c12.217-12.52,18.946-29.249,18.946-47.104
		v-35.599C268.905,133.269,263.065,127.429,255.861,127.429z M242.818,176.072c0,22.798-17.445,40.657-39.717,40.657H148.5
		c-7.204,0-13.044,5.84-13.044,13.044v41.139H54.182V153.517h188.635V176.072z"/>
	<path d="M41.139,117.395h71.24c7.204,0,13.044-5.84,13.044-13.044V13.044C125.422,5.84,119.582,0,112.378,0h-71.24
		c-7.204,0-13.044,5.84-13.044,13.044v91.307C28.095,111.555,33.935,117.395,41.139,117.395z M54.182,26.088h45.152v65.22H54.182
		V26.088z"/>
</g>
<g>
</g>
<g>
</g>
<g>
</g>
<g>
</g>
<g>
</g>
<g>
</g>
<g>
</g>
<g>
</g>
<g>
</g>
<g>
</g>
<g>
</g>
<g>
</g>
<g>
</g>
<g>
</g>
<g>
</g>
</svg>
