<?xml version="1.0" encoding="iso-8859-1"?>
<!-- Generator: Adobe Illustrator 19.0.0, SVG Export Plug-In . SVG Version: 6.00 Build 0)  -->
<svg version="1.1" id="Layer_1" xmlns="http://www.w3.org/2000/svg" xmlns:xlink="http://www.w3.org/1999/xlink" x="0px" y="0px"
	 viewBox="0 0 511.998 511.998" style="enable-background:new 0 0 511.998 511.998;" xml:space="preserve">
<g>
	<g>
		<path d="M299.102,0v42.278v30.417V225.11H20.279v42.278v25.349v5.068h0.088c0.89,28.175,9.183,55.51,24.136,79.35
			c13.72,21.875,32.505,40.054,54.693,53.018v81.824h301.282v-80.794c0-19.06,6.787-37.564,19.113-52.103l45.798-54.024
			c16.979-20.028,26.329-45.516,26.329-71.771V72.695V42.278V0H299.102z M50.696,255.529h248.406v11.861H50.696V255.529z
			 M461.303,253.307c0,19.059-6.787,37.563-19.113,52.102l-45.798,54.023c-16.979,20.027-26.329,45.515-26.329,71.772v50.378
			H129.615V411.81l-8.331-4.224c-42.024-21.305-68.685-63.048-70.489-109.78h278.725v-72.695V72.695h131.783V253.307z
			 M461.303,42.278H329.519V30.417h131.783V42.278z"/>
	</g>
</g>
<g>
</g>
<g>
</g>
<g>
</g>
<g>
</g>
<g>
</g>
<g>
</g>
<g>
</g>
<g>
</g>
<g>
</g>
<g>
</g>
<g>
</g>
<g>
</g>
<g>
</g>
<g>
</g>
<g>
</g>
</svg>
